<svg width="580" height="580" viewBox="0 0 580 580" fill="none" xmlns="http://www.w3.org/2000/svg">
<rect width="580" height="580" rx="140" fill="#FFCF00"/>
<path d="M490.577 429.662V429.162H490.077H439.209C429.536 429.162 421.753 436.941 421.753 446.521C421.753 456.29 429.532 464.074 439.209 464.074H473.121C474.695 464.074 476.012 465.312 476.012 466.965C476.012 468.53 474.685 469.856 473.121 469.856H422.253H421.753V470.356V483.824V484.324H422.253H473.121C482.793 484.324 490.577 476.544 490.577 466.965C490.577 457.294 482.799 449.412 473.121 449.412H439.209C437.635 449.412 436.318 448.173 436.318 446.521C436.318 444.975 437.625 443.726 439.209 443.726H490.077H490.577V443.226V429.662Z" fill="#1E1E1E" stroke="black"/>
<path d="M398.476 483.824V484.324H398.976H412.541H413.041V483.824V416V415.5H412.541H398.976H398.476V416V483.824Z" fill="#1E1E1E" stroke="black"/>
<path d="M389.806 429.662V429.162H389.306H341.733C330.314 429.162 320.982 438.493 320.982 449.912V483.824V484.324H321.482H335.047H335.547V483.824V449.912C335.547 446.506 338.327 443.726 341.733 443.726H389.306H389.806V443.226V429.662Z" fill="#1E1E1E" stroke="black"/>
<path d="M311.812 484.324H312.312V483.824V449.912C312.312 438.492 302.979 429.162 291.465 429.162H243.988H243.488V429.662V443.226V443.726H243.988H291.465C294.799 443.726 297.471 446.242 297.727 449.412H260.944C251.266 449.412 243.488 457.294 243.488 466.965C243.488 476.544 251.272 484.324 260.944 484.324H311.812ZM260.944 469.856C259.38 469.856 258.053 468.53 258.053 466.965C258.053 465.312 259.37 464.074 260.944 464.074H297.747V469.856H260.944Z" fill="#1E1E1E" stroke="black"/>
<path d="M200.906 416.097V415.597H200.406H186.744H186.244V416.097V429.162H166.494H165.994V429.662V443.226V443.726H166.494H186.244V463.574C186.244 475.095 195.679 484.324 207.188 484.324H234.318H234.818V483.824V470.356V469.856H234.318H207.188C203.69 469.856 200.906 466.984 200.906 463.574V443.726H234.318H234.818V443.226V429.662V429.162H234.318H200.906V416.097Z" fill="#1E1E1E" stroke="black"/>
<path d="M157.324 429.662V429.162H156.824H105.956C96.2832 429.162 88.5 436.941 88.5 446.521C88.5 456.29 96.2795 464.074 105.956 464.074H139.868C141.442 464.074 142.759 465.312 142.759 466.965C142.759 468.53 141.433 469.856 139.868 469.856H89H88.5V470.356V483.824V484.324H89H139.868C149.541 484.324 157.324 476.544 157.324 466.965C157.324 457.294 149.546 449.412 139.868 449.412H105.956C104.382 449.412 103.065 448.173 103.065 446.521C103.065 444.975 104.372 443.726 105.956 443.726H156.824H157.324V443.226V429.662Z" fill="#1E1E1E" stroke="black"/>
<g clip-path="url(#clip0_5_680)">
<path d="M438.592 246.742C439.796 326.576 371.435 397.201 286.435 395.825C207.285 394.547 139.479 328.226 139.999 245.44C140.508 165.031 206.467 97.0421 288.983 97C372.938 96.9544 439.848 166.719 438.592 246.742ZM365.981 245.872C366.128 255.11 365.395 263.807 364.279 272.494C362.833 283.739 360.372 294.746 357.003 305.556C353.174 317.848 348.246 329.69 342.083 340.998C338.089 348.33 333.733 355.434 328.816 362.197C324.628 367.953 320.178 373.488 315.524 378.869C315.24 379.199 314.643 379.539 315.012 380.013C315.296 380.382 315.882 380.15 316.342 380.059C326.727 377.956 336.762 374.731 346.372 370.295C362.166 363.001 376.072 353.061 388.096 340.451C393.835 334.431 398.952 327.963 403.543 321.055C410.471 310.638 415.796 299.432 419.516 287.512C424.275 272.262 426.49 256.651 425.648 240.632C425.406 236.027 425.118 231.433 424.447 226.884C422.97 216.877 420.418 207.134 416.803 197.675C412.124 185.437 405.768 174.121 397.833 163.721C391.69 155.673 384.646 148.457 376.89 141.933C369.312 135.562 361.134 130.108 352.374 125.517C343.813 121.035 334.824 117.617 325.552 114.96C322.421 114.061 319.199 113.489 316.019 112.766C315.675 112.689 315.25 112.545 315.026 112.84C314.689 113.289 315.184 113.566 315.422 113.858C316.419 115.076 317.409 116.297 318.441 117.487C325.797 125.97 332.266 135.099 337.959 144.765C338.987 146.509 340.061 147.183 342.09 147.067C350.643 146.573 358.66 148.728 366.114 152.771C376.682 158.502 384.744 166.733 389.602 177.824C393.944 187.732 395.028 197.9 391.199 208.261C388.735 214.922 384.516 220.205 378.529 224.097C374.91 226.452 370.997 228.035 366.827 229.032C365.827 229.271 365.226 229.685 365.36 230.801C365.971 235.967 366.076 241.151 365.985 245.868L365.981 245.872ZM344.483 156.116C342.672 156.074 340.879 156.196 339.089 156.523C330.199 158.137 323.653 162.791 320.052 171.222C317.163 177.989 317.497 184.875 319.645 191.737C322.47 200.75 328.1 207.794 335.632 213.276C342.588 218.341 350.405 221.156 359.133 220.984C359.632 220.973 360.316 221.202 360.565 220.633C360.864 219.945 360.148 219.605 359.734 219.264C354.416 214.919 350.566 209.496 348.12 203.122C347.484 201.466 346.488 200.792 344.912 200.402C340.314 199.269 337.053 196.422 335.067 192.182C332.466 186.626 333.954 180.832 338.629 177.824C340.77 176.444 343.136 175.946 345.638 176.146C346.814 176.241 347.376 175.841 347.804 174.69C349.78 169.379 352.76 164.676 356.722 160.605C358 159.292 357.961 158.969 356.255 158.351C352.454 156.979 348.562 156.031 344.48 156.123L344.483 156.116ZM344.596 182.113C341.188 182.078 338.899 185.058 339.886 188.269C340.802 191.249 342.767 193.309 345.628 194.46C349.369 195.966 353.356 193.681 353.195 190.196C353.019 186.346 348.562 182.155 344.596 182.113Z" fill="#808080"/>
<path d="M365.982 245.872C366.077 241.155 365.968 235.971 365.358 230.804C365.224 229.688 365.824 229.274 366.825 229.035C370.994 228.039 374.908 226.452 378.526 224.101C384.511 220.208 388.733 214.926 391.197 208.264C395.026 197.907 393.942 187.736 389.6 177.827C384.742 166.736 376.677 158.502 366.112 152.774C358.657 148.735 350.645 146.58 342.088 147.071C340.059 147.187 338.985 146.513 337.957 144.769C332.264 135.103 325.799 125.974 318.439 117.49C317.407 116.3 316.417 115.079 315.42 113.861C315.181 113.57 314.683 113.293 315.024 112.843C315.245 112.549 315.673 112.692 316.017 112.77C319.197 113.493 322.419 114.068 325.549 114.963C334.822 117.62 343.811 121.039 352.371 125.521C361.132 130.108 369.31 135.566 376.887 141.936C384.644 148.457 391.688 155.677 397.83 163.725C405.77 174.125 412.126 185.44 416.801 197.679C420.416 207.138 422.968 216.881 424.445 226.887C425.116 231.436 425.407 236.03 425.646 240.635C426.488 256.654 424.273 272.266 419.514 287.516C415.794 299.435 410.469 310.638 403.541 321.059C398.947 327.97 393.829 334.438 388.094 340.454C376.07 353.065 362.16 363.008 346.37 370.298C336.76 374.734 326.725 377.96 316.34 380.062C315.88 380.157 315.294 380.385 315.009 380.017C314.641 379.539 315.238 379.199 315.522 378.873C320.176 373.492 324.626 367.957 328.814 362.201C333.731 355.438 338.083 348.334 342.081 341.002C348.244 329.69 353.172 317.851 357.001 305.56C360.37 294.75 362.834 283.739 364.277 272.497C365.393 263.814 366.126 255.113 365.979 245.876L365.982 245.872Z" fill="#1E1E1E"/>
<path d="M344.485 156.116C348.567 156.024 352.463 156.972 356.26 158.344C357.966 158.962 358.008 159.285 356.727 160.598C352.764 164.669 349.785 169.369 347.809 174.683C347.38 175.834 346.819 176.234 345.643 176.139C343.141 175.939 340.778 176.437 338.634 177.817C333.959 180.828 332.467 186.619 335.071 192.175C337.058 196.419 340.319 199.262 344.917 200.395C346.492 200.785 347.489 201.459 348.124 203.115C350.571 209.489 354.418 214.915 359.738 219.257C360.153 219.598 360.869 219.938 360.57 220.626C360.321 221.198 359.637 220.97 359.138 220.977C350.409 221.145 342.593 218.334 335.637 213.269C328.105 207.787 322.475 200.746 319.649 191.73C317.498 184.872 317.168 177.985 320.057 171.215C323.658 162.784 330.203 158.13 339.094 156.516C340.88 156.193 342.677 156.07 344.485 156.109V156.116Z" fill="#1E1E1E"/>
<path d="M344.597 182.113C348.563 182.155 353.024 186.346 353.196 190.196C353.354 193.685 349.371 195.966 345.629 194.46C342.772 193.309 340.807 191.249 339.887 188.269C338.897 185.058 341.189 182.078 344.597 182.113Z" fill="#1E1E1E"/>
</g>
<defs>
<clipPath id="clip0_5_680">
<rect width="298.611" height="298.846" fill="white" transform="translate(140 97)"/>
</clipPath>
</defs>
</svg>
